HIERARCHY
ROOT Hips
{
  OFFSET 12.5924 87.7646 8.5502
  CHANNELS 6 Xposition Yposition Zposition Zrotation Xrotation Yrotation
  JOINT RightUpLeg
  {
    OFFSET -9.27424 -1.51647 -0.00177081
    CHANNELS 3 Zrotation Xrotation Yrotation
    JOINT RightLeg
    {
      OFFSET -0.0218595 -41.9179 0.0996455
      CHANNELS 3 Zrotation Xrotation Yrotation
      JOINT RightFoot
      {
        OFFSET -0.864559 -41.9626 -0.357059
        CHANNELS 3 Zrotation Xrotation Yrotation
        End Site
        {
          OFFSET 0 -7.69 17.5
        }
      }
    }
  }
  JOINT LeftUpLeg
  {
    OFFSET 9.25718 -1.5867 0.052377
    CHANNELS 3 Zrotation Xrotation Yrotation
    JOINT LeftLeg
    {
      OFFSET 0.0916619 -41.8676 0.000817906
      CHANNELS 3 Zrotation Xrotation Yrotation
      JOINT LeftFoot
      {
        OFFSET -0.467602 -41.8546 0.208385
        CHANNELS 3 Zrotation Xrotation Yrotation
        End Site
        {
          OFFSET 0 -7.69 17.5
        }
      }
    }
  }
  JOINT Spine
  {
    OFFSET 0.0181296 14.2981 0.0454815
    CHANNELS 3 Zrotation Xrotation Yrotation
    JOINT Spine1
    {
      OFFSET 0.0179205 9.71532 0.0144816
      CHANNELS 3 Zrotation Xrotation Yrotation
      JOINT Spine2
      {
        OFFSET 0.0460832 10.1118 -0.00781291
        CHANNELS 3 Zrotation Xrotation Yrotation
        JOINT Spine3
        {
          OFFSET 0.0326005 9.72657 -0.000132442
          CHANNELS 3 Zrotation Xrotation Yrotation
          JOINT Neck
          {
            OFFSET -0.0594321 10.3688 0.0892585
            CHANNELS 3 Zrotation Xrotation Yrotation
            JOINT Head
            {
              OFFSET -0.027184 9.52116 0.11923
              CHANNELS 3 Zrotation Xrotation Yrotation
              End Site
              {
                OFFSET 0 15.95 0
              }
            }
          }
          JOINT RightShoulder
          {
            OFFSET -3.18249 6.94712 0.0315742
            CHANNELS 3 Zrotation Xrotation Yrotation
            JOINT RightArm
            {
              OFFSET -12.6859 -0.0281953 -0.0223312
              CHANNELS 3 Zrotation Xrotation Yrotation
              JOINT RightForeArm
              {
                OFFSET -26.4349 -0.138904 0.103809
                CHANNELS 3 Zrotation Xrotation Yrotation
                JOINT RightHand
                {
                  OFFSET -26.0404 -0.036643 0.02476
                  CHANNELS 3 Zrotation Xrotation Yrotation
                  JOINT RightHandThumb1
                  {
                    OFFSET -2.48905 0.190105 3.12053
                    CHANNELS 3 Zrotation Xrotation Yrotation
                    JOINT RightHandThumb2
                    {
                      OFFSET -3.68274 0 0
                      CHANNELS 3 Zrotation Xrotation Yrotation
                      JOINT RightHandThumb3
                      {
                        OFFSET -2.55832 0 0
                        CHANNELS 3 Zrotation Xrotation Yrotation
                        End Site
                        {
                          OFFSET -2.194 0 0
                        }
                      }
                    }
                  }
                  JOINT RightInHandIndex
                  {
                    OFFSET -3.22368 0.508421 1.97842
                    CHANNELS 3 Zrotation Xrotation Yrotation
                    JOINT RightHandIndex1
                    {
                      OFFSET -5.21684 -0.091368 0.999158
                      CHANNELS 3 Zrotation Xrotation Yrotation
                      JOINT RightHandIndex2
                      {
                        OFFSET -3.61937 0 0
                        CHANNELS 3 Zrotation Xrotation Yrotation
                        JOINT RightHandIndex3
                        {
                          OFFSET -2.0521 0 0
                          CHANNELS 3 Zrotation Xrotation Yrotation
                          End Site
                          {
                            OFFSET -1.805 0 0
                          }
                        }
                      }
                    }
                  }
                  JOINT RightInHandMiddle
                  {
                    OFFSET -3.38211 0.517263 0.756737
                    CHANNELS 3 Zrotation Xrotation Yrotation
                    JOINT RightHandMiddle1
                    {
                      OFFSET -5.17411 -0.084 0.313895
                      CHANNELS 3 Zrotation Xrotation Yrotation
                      JOINT RightHandMiddle2
                      {
                        OFFSET -3.94947 0 0
                        CHANNELS 3 Zrotation Xrotation Yrotation
                        JOINT RightHandMiddle3
                        {
                          OFFSET -2.47579 0 0
                          CHANNELS 3 Zrotation Xrotation Yrotation
                          End Site
                          {
                            OFFSET -1.975 0 0
                          }
                        }
                      }
                    }
                  }
                  JOINT RightInHandRing
                  {
                    OFFSET -3.36516 0.537895 -0.128947
                    CHANNELS 3 Zrotation Xrotation Yrotation
                    JOINT RightHandRing1
                    {
                      OFFSET -4.63474 -0.022105 -0.478947
                      CHANNELS 3 Zrotation Xrotation Yrotation
                      JOINT RightHandRing2
                      {
                        OFFSET -3.44238 0 0
                        CHANNELS 3 Zrotation Xrotation Yrotation
                        JOINT RightHandRing3
                        {
                          OFFSET -2.3881 0 0
                          CHANNELS 3 Zrotation Xrotation Yrotation
                          End Site
                          {
                            OFFSET -1.857 0 0
                          }
                        }
                      }
                    }
                  }
                  JOINT RightInHandPinky
                  {
                    OFFSET -3.16105 0.469368 -1.20179
                    CHANNELS 3 Zrotation Xrotation Yrotation
                    JOINT RightHandPinky1
                    {
                      OFFSET -4.14105 -0.022105 -1.09053
                      CHANNELS 3 Zrotation Xrotation Yrotation
                      JOINT RightHandPinky2
                      {
                        OFFSET -2.75653 0 0
                        CHANNELS 3 Zrotation Xrotation Yrotation
                        JOINT RightHandPinky3
                        {
                          OFFSET -1.74189 0 0
                          CHANNELS 3 Zrotation Xrotation Yrotation
                          End Site
                          {
                            OFFSET -1.645 0 0
                          }
                        }
                      }
                    }
                  }
                }
              }
            }
          }
          JOINT LeftShoulder
          {
            OFFSET 3.21289 6.91298 -0.0113859
            CHANNELS 3 Zrotation Xrotation Yrotation
            JOINT LeftArm
            {
              OFFSET 12.7691 -0.0256594 -0.0399854
              CHANNELS 3 Zrotation Xrotation Yrotation
              JOINT LeftForeArm
              {
                OFFSET 26.4177 -0.0137926 -0.00219879
                CHANNELS 3 Zrotation Xrotation Yrotation
                JOINT LeftHand
                {
                  OFFSET 26.0013 -0.0633708 -0.0119906
                  CHANNELS 3 Zrotation Xrotation Yrotation
                  JOINT LeftHandThumb1
                  {
                    OFFSET 2.48905 0.190105 3.12053
                    CHANNELS 3 Zrotation Xrotation Yrotation
                    JOINT LeftHandThumb2
                    {
                      OFFSET 3.68274 0 0
                      CHANNELS 3 Zrotation Xrotation Yrotation
                      JOINT LeftHandThumb3
                      {
                        OFFSET 2.55832 0 0
                        CHANNELS 3 Zrotation Xrotation Yrotation
                        End Site
                        {
                          OFFSET 2.194 0 0
                        }
                      }
                    }
                  }
                  JOINT LeftInHandIndex
                  {
                    OFFSET 3.22368 0.508421 1.97842
                    CHANNELS 3 Zrotation Xrotation Yrotation
                    JOINT LeftHandIndex1
                    {
                      OFFSET 5.21684 -0.091368 0.999158
                      CHANNELS 3 Zrotation Xrotation Yrotation
                      JOINT LeftHandIndex2
                      {
                        OFFSET 3.61937 0 0
                        CHANNELS 3 Zrotation Xrotation Yrotation
                        JOINT LeftHandIndex3
                        {
                          OFFSET 2.0521 0 0
                          CHANNELS 3 Zrotation Xrotation Yrotation
                          End Site
                          {
                            OFFSET 1.805 0 0
                          }
                        }
                      }
                    }
                  }
                  JOINT LeftInHandMiddle
                  {
                    OFFSET 3.38211 0.517263 0.756737
                    CHANNELS 3 Zrotation Xrotation Yrotation
                    JOINT LeftHandMiddle1
                    {
                      OFFSET 5.17411 -0.084 0.313895
                      CHANNELS 3 Zrotation Xrotation Yrotation
                      JOINT LeftHandMiddle2
                      {
                        OFFSET 3.94947 0 0
                        CHANNELS 3 Zrotation Xrotation Yrotation
                        JOINT LeftHandMiddle3
                        {
                          OFFSET 2.47579 0 0
                          CHANNELS 3 Zrotation Xrotation Yrotation
                          End Site
                          {
                            OFFSET 1.975 0 0
                          }
                        }
                      }
                    }
                  }
                  JOINT LeftInHandRing
                  {
                    OFFSET 3.36516 0.537895 -0.128947
                    CHANNELS 3 Zrotation Xrotation Yrotation
                    JOINT LeftHandRing1
                    {
                      OFFSET 4.63474 -0.022105 -0.478947
                      CHANNELS 3 Zrotation Xrotation Yrotation
                      JOINT LeftHandRing2
                      {
                        OFFSET 3.44238 0 0
                        CHANNELS 3 Zrotation Xrotation Yrotation
                        JOINT LeftHandRing3
                        {
                          OFFSET 2.3881 0 0
                          CHANNELS 3 Zrotation Xrotation Yrotation
                          End Site
                          {
                            OFFSET 1.857 0 0
                          }
                        }
                      }
                    }
                  }
                  JOINT LeftInHandPinky
                  {
                    OFFSET 3.16105 0.469368 -1.20179
                    CHANNELS 3 Zrotation Xrotation Yrotation
                    JOINT LeftHandPinky1
                    {
                      OFFSET 4.14105 -0.022105 -1.09053
                      CHANNELS 3 Zrotation Xrotation Yrotation
                      JOINT LeftHandPinky2
                      {
                        OFFSET 2.75653 0 0
                        CHANNELS 3 Zrotation Xrotation Yrotation
                        JOINT LeftHandPinky3
                        {
                          OFFSET 1.74189 0 0
                          CHANNELS 3 Zrotation Xrotation Yrotation
                          End Site
                          {
                            OFFSET 1.645 0 0
                          }
                        }
                      }
                    }
                  }
                }
              }
            }
          }
        }
      }
    }
  }
}
MOTION
Frames:	4
Frame Time:	0.00833333
14.1844 87.6805 4.19834 25.421 -16.2436 -157.418 37.1745 -48.7631 48.2857 -2.16286 28.7817 -3.30504 5.68506 -1.36886 35.4184 49.6655 -36.8692 34.3544 -9.85795 41.7125 19.1032 -12.7695 -12.5998 9.05208 1.07209 8.33635 -30.8978 -0.112692 2.09846 -8.11096 -0.0437346 3.36495 -12.3739 -0.919496 -0.606025 2.58084 -5.42736 -3.68216 36.9942 -14.5851 1.83661 25.7185 4.03631 -3.12566 -5.13955 59.828 -23.3085 -10.5584 62.7937 -11.9045 114.884 -20.4633 -1.40883 4.28432 28.184 10.7294 19.1592 9.12804e-15 -3.18055e-15 -10 -2.80409e-16 -1.59028e-15 -10 -7.95139e-16 3.18055e-15 -3.18055e-15 19.9818 0.871897 2.3964 24 -3.18055e-15 4.77083e-15 20 6.36111e-15 1.11319e-14 -7.95139e-16 3.18055e-15 -3.18055e-15 20 -9.54166e-15 9.14409e-15 24 -1.59028e-15 1.59028e-15 20 -4.77083e-15 2.22639e-14 -7.95139e-16 3.18055e-15 -3.18055e-15 19.9748 -1.02565 -2.81938 24 0 -6.36111e-15 20 -4.77083e-15 1.11319e-14 -7.95139e-16 3.18055e-15 -3.18055e-15 19.7815 -3.00948 -8.30515 24 4.77083e-15 9.54166e-15 20 0 4.77083e-15 17.7129 -21.3235 -2.1464 1.51674 51.3332 -139.248 24.9187 9.2014 -15.1529 34.1391 -10.4924 42.5071 -28.184 10.7294 -19.1592 -6.76429e-17 9.54166e-15 10 -0 0 10 -3.18055e-15 6.36111e-15 -0 -19.9818 0.871897 -2.3964 -24 6.36111e-15 -5.1684e-15 -20 3.18055e-15 -1.27222e-14 -3.18055e-15 6.36111e-15 -0 -20 3.18055e-15 3.18055e-15 -24 3.18055e-15 -8.34896e-15 -20 3.18055e-15 -7.15625e-15 -3.18055e-15 6.36111e-15 -0 -19.9748 -1.02565 2.81938 -24 6.36111e-15 -3.97569e-15 -20 -3.18055e-15 -1.19271e-14 -3.18055e-15 6.36111e-15 -0 -19.7815 -3.00948 8.30515 -24 -3.18055e-15 1.98785e-15 -20 1.59028e-15 -6.36111e-15 
14.2355 87.6746 4.30554 25.6408 -16.2407 -157.111 37.1807 -49.024 48.2611 -2.06693 28.8256 -3.39406 5.74198 -1.39012 35.2964 49.7452 -37.3224 34.5103 -9.51433 41.8523 18.7782 -12.7137 -12.5602 9.04614 1.19132 8.43471 -30.722 -0.0851421 2.13618 -8.06189 0.00176537 3.43153 -12.3141 -0.920285 -0.606042 2.57369 -5.4078 -3.6084 36.4232 -14.6311 1.65455 25.9536 3.916 -3.0206 -5.20802 59.9887 -23.9266 -10.5836 63.539 -11.8901 112.268 -21.2151 -2.27957 4.66611 28.184 10.7294 19.1592 -5.60818e-16 -3.18055e-15 -10 4.63166e-15 7.95139e-15 -10 7.95139e-16 0 -3.57812e-15 19.9818 0.871897 2.3964 24 0 -0 20 -1.59028e-15 3.18055e-15 7.95139e-16 0 -3.57812e-15 20 6.36111e-15 2.38542e-15 24 -6.36111e-15 -6.36111e-15 20 4.77083e-15 1.59028e-15 7.95139e-16 0 -3.57812e-15 19.9748 -1.02565 -2.81938 24 -1.59028e-15 6.36111e-15 20 -1.59028e-15 3.18055e-15 7.95139e-16 0 -3.57812e-15 19.7815 -3.00948 -8.30515 24 -1.59028e-15 7.95139e-15 20 4.77083e-15 1.59028e-15 17.6799 -21.1258 -2.11636 0.977328 52.68 -138.411 24.5279 10.0586 -14.565 34.7966 -10.7086 40.3255 -28.184 10.7294 -19.1592 6.03371e-15 -1.59028e-14 10 2.80409e-15 -1.59028e-14 10 3.18055e-15 -3.18055e-15 -0 -19.9818 0.871897 -2.3964 -24 3.18055e-15 -9.14409e-15 -20 0 -3.97569e-15 3.18055e-15 -3.18055e-15 -0 -20 6.36111e-15 -4.77083e-15 -24 3.18055e-15 -7.95139e-15 -20 6.36111e-15 -3.18055e-15 3.18055e-15 -3.18055e-15 -0 -19.9748 -1.02565 2.81938 -24 -3.18055e-15 -2.78299e-15 -20 0 -9.54166e-15 3.18055e-15 -3.18055e-15 -0 -19.7815 -3.00948 8.30515 -24 4.77083e-15 -1.19271e-14 -20 3.18055e-15 -5.1684e-15 
14.2826 87.6674 4.41695 25.8239 -16.2294 -156.82 37.1467 -49.2656 48.2256 -1.97577 28.8715 -3.4904 5.80608 -1.41369 35.1828 49.7982 -37.754 34.658 -9.17634 41.9856 18.4701 -12.6622 -12.5034 9.0273 1.28298 8.55893 -30.4768 -0.0649611 2.17601 -7.99488 0.0351301 3.49983 -12.2324 -0.921142 -0.606034 2.56422 -5.375 -3.51117 35.6666 -14.6812 1.41163 26.2667 3.796 -2.92771 -5.27296 60.3023 -24.5141 -10.6451 64.1652 -11.8061 109.609 -21.7241 -3.11392 5.6278 28.184 10.7294 19.1592 2.80409e-16 1.59028e-15 -10 2.80409e-16 1.59028e-15 -10 -1.59028e-15 -3.18055e-15 1.19271e-15 19.9818 0.871897 2.3964 24 -6.36111e-15 -1.59028e-15 20 3.18055e-15 -6.36111e-15 -1.59028e-15 -3.18055e-15 1.19271e-15 20 0 1.03368e-14 24 -1.59028e-15 -7.95139e-15 20 0 -1.59028e-15 -1.59028e-15 -3.18055e-15 1.19271e-15 19.9748 -1.02565 -2.81938 24 -4.77083e-15 -9.54166e-15 20 3.18055e-15 -3.18055e-15 -1.59028e-15 -3.18055e-15 1.19271e-15 19.7815 -3.00948 -8.30515 24 -1.74931e-14 -6.36111e-15 20 -1.59028e-15 -1.27222e-14 17.6168 -20.9044 -2.12313 0.359279 53.9876 -137.408 24.0144 10.7275 -13.8304 35.4876 -11.183 38.4582 -28.184 10.7294 -19.1592 7.58087e-15 -6.36111e-15 10 1.54717e-15 9.54166e-15 10 6.36111e-15 0 3.18055e-15 -19.9818 0.871897 -2.3964 -24 6.36111e-15 -7.95139e-16 -20 0 -8.74653e-15 6.36111e-15 0 3.18055e-15 -20 3.18055e-15 -3.18055e-15 -24 0 1.59028e-15 -20 6.36111e-15 3.97569e-15 6.36111e-15 0 3.18055e-15 -19.9748 -1.02565 2.81938 -24 3.18055e-15 -2.38542e-15 -20 0 -6.36111e-15 6.36111e-15 0 3.18055e-15 -19.7815 -3.00948 8.30515 -24 -1.59028e-15 -7.15625e-15 -20 -1.59028e-15 -3.97569e-15 
14.316 87.662 4.53357 26.0076 -16.2082 -156.494 37.0788 -49.5135 48.1296 -1.90396 28.9133 -3.58124 5.88121 -1.44129 35.0785 49.8306 -38.2029 34.8003 -8.81343 42.1104 18.1382 -12.614 -12.4361 8.98711 1.38646 8.69896 -30.1791 -0.041869 2.22065 -7.91326 0.0731403 3.57639 -12.132 -0.922235 -0.606026 2.55153 -5.336 -3.39526 34.7085 -14.7583 1.10312 26.6526 3.72032 -2.89529 -5.34917 60.4519 -25.2454 -10.807 64.823 -11.6212 106.712 -21.4357 -3.55564 8.84731 28.184 10.7294 19.1592 5.60818e-16 3.18055e-15 -10 1.08105e-14 6.36111e-15 -10 0 0 -3.97569e-16 19.9818 0.871897 2.3964 24 7.95139e-15 1.11319e-14 20 3.18055e-15 6.36111e-15 0 0 -3.97569e-16 20 3.18055e-15 -2.38542e-15 24 0 2.06736e-14 20 4.77083e-15 9.54166e-15 0 0 -3.97569e-16 19.9748 -1.02565 -2.81938 24 7.95139e-15 3.18055e-15 20 7.95139e-15 1.27222e-14 0 0 -3.97569e-16 19.7815 -3.00948 -8.30515 24 0 9.54166e-15 20 6.36111e-15 3.18055e-15 17.5 -20.6987 -2.1578 -0.324612 55.2852 -136.294 23.3422 11.1773 -12.7937 36.2277 -12.4202 37.6891 -28.184 10.7294 -19.1592 1.61481e-15 0 10 -3.22962e-15 0 10 -9.54166e-15 1.59028e-15 -3.18055e-15 -19.9818 0.871897 -2.3964 -24 0 -1.43125e-14 -20 3.18055e-15 -3.97569e-15 -9.54166e-15 1.59028e-15 -3.18055e-15 -20 3.18055e-15 -1.74931e-14 -24 0 -1.27222e-14 -20 -6.36111e-15 -6.36111e-15 -9.54166e-15 1.59028e-15 -3.18055e-15 -19.9748 -1.02565 2.81938 -24 0 -2.0276e-14 -20 -6.36111e-15 -5.1684e-15 -9.54166e-15 1.59028e-15 -3.18055e-15 -19.7815 -3.00948 8.30515 -24 4.77083e-15 -2.10712e-14 -20 0 -3.57812e-15 
